<?xml version="1.0" encoding="UTF-8"?>
<svg id="_レイヤー_4" data-name="レイヤー 4" xmlns="http://www.w3.org/2000/svg" viewBox="0 0 698.97 567.82">
  <defs>
    <style>
      .cls-1, .cls-2 {
        fill: none;
        stroke: #3d3600;
        stroke-miterlimit: 10;
        stroke-width: 24px;
      }

      .cls-2 {
        stroke-linecap: round;
      }
    </style>
  </defs>
  <path class="cls-1" d="M459.8,436.45l-78.39-98.44c-4.74-5.96-12.78-8.18-19.91-5.51l-117.84,44.13c-15.94,5.97-30.21-11.95-20.82-26.15l69.39-104.97c4.2-6.35,3.83-14.68-.91-20.64l-78.39-98.44c-10.6-13.32,2.03-32.42,18.43-27.88l121.28,33.56c7.34,2.03,15.15-.89,19.35-7.25l69.39-104.97c9.39-14.2,31.46-8.09,32.22,8.91l5.56,125.71c.34,7.61,5.53,14.13,12.87,16.16l121.28,33.56c16.41,4.54,17.42,27.42,1.48,33.39l-117.84,44.13c-7.13,2.67-11.73,9.63-11.39,17.23l5.56,125.71c.75,17.01-20.7,25.04-31.3,11.72Z"/>
  <line class="cls-2" x1="146.89" y1="148.68" x2="38.23" y2="148.68"/>
  <line class="cls-2" x1="188.1" y1="219.86" x2="79.44" y2="219.86"/>
  <line class="cls-2" x1="120.66" y1="291.05" x2="12" y2="291.05"/>
</svg>