<?xml version="1.0" encoding="UTF-8"?>
<svg id="_レイヤー_2" data-name="レイヤー 2" xmlns="http://www.w3.org/2000/svg" viewBox="0 0 698.97 567.82">
  <defs>
    <style>
      .cls-1 {
        fill: none;
        stroke: #20223d;
        stroke-linecap: round;
        stroke-linejoin: round;
        stroke-width: 24px;
      }
    </style>
  </defs>
  <path class="cls-1" d="M184.82,448.96c-22.19,20.83-57.07,19.73-77.91-2.46-20.83-22.19-19.73-57.07,2.46-77.91"/>
  <path class="cls-1" d="M393.3,41.44c-8.76,4.39-17.05,10.12-24.57,17.18-41.79,39.23-32.71,97.23-32.71,97.23"/>
  <path class="cls-1" d="M184.82,448.96l226.64-212.75s57.31,12.73,99.1-26.5c41.79-39.23,43.86-104.67,4.63-146.46-11.58-12.34-25.44-21.21-40.31-26.58"/>
  <line class="cls-1" x1="109.38" y1="368.59" x2="336.02" y2="155.85"/>
  <polyline class="cls-1" points="474.89 36.67 472.12 124.28 448.7 143.81 400.74 131.38 395.89 40.88"/>
</svg>